<svg height="500pt" viewBox="0 -154 500.976 500" width="500pt" xmlns="http://www.w3.org/2000/svg"><path d="m336.257812 141.671875c-2.097656-.671875-4.363281.488281-5.035156 2.574219l-108.015625-4.597656c-.605469-2.128907-2.78125-3.34375-4.933593-2.769532-2.128907.609375-3.378907 2.816406-2.769532 4.9375l13.457032 47.75c.015624.066406.078124.097656.109374.160156.234376.722657.65625 1.328126 1.25 1.816407.113282.097656.214844.160156.34375.234375.625.414062 1.335938.710937 2.152344.710937h88.246094c.785156 0 1.472656-.28125 2.097656-.671875.128906-.082031.230469-.160156.359375-.25.578125-.453125 1.03125-1.03125 1.28125-1.75.015625-.03125.0625-.0625.078125-.097656l13.953125-43c.671875-2.101562-.472656-4.359375-2.574219-5.046875zm0 0" fill="#656d78"/><path d="m166.328125 41.078125-38.503906-39.390625c-.015625 0-.015625 0-.015625 0-.375-.375-.800782-.6875-1.296875-.886719-.488281-.199219-1-.296875-1.511719-.296875-.015625 0-.015625-.015625-.03125-.015625h-80c-2.214844 0-4 1.800781-4 4v64.441407c0 2.199218 1.785156 4 4 4 2.199219 0 4-1.800782 4-4l111.640625-22.25c.78125.816406 1.816406 1.199218 2.855469 1.199218 1 0 2.015625-.375 2.800781-1.144531 1.582031-1.527344 1.613281-4.078125.0625-5.65625zm0 0" fill="#656d78"/><path d="m166.328125 127.894531-38.503906 39.394531c-.015625.015626-.015625.015626-.015625.015626-.375.375-.800782.671874-1.296875.871093-.488281.199219-1 .296875-1.511719.3125-.015625 0-.015625 0-.03125 0h-80c-2.214844 0-4-1.785156-4-4v-64.425781c0-2.214844 1.785156-4 4-4 2.199219 0 4 1.785156 4 4l111.640625 22.234375c.78125-.800781 1.816406-1.199219 2.855469-1.199219 1 0 2.015625.390625 2.800781 1.140625 1.582031 1.546875 1.613281 4.082031.0625 5.65625zm0 0" fill="#656d78"/><path d="m142.566406 22.503906c166.488282-40.328125 358.410156-10.078125 358.410156 61.921875 0 45.671875-75.839843 74.308594-173.359374 79.277344-32 1.671875-66.25.722656-100.96875-2.96875-28-2.949219-56.3125-7.671875-83.90625-14.390625-34.328126-8.328125-67.605469-19.6875-97.765626-34.246094-15.167968-7.234375-29.511718-15.265625-42.871093-24.1875-1.738281-1.140625-1.816407-5.78125-.128907-6.902344 13.421876-8.96875 27.855469-17.097656 43-24.34375v-.078124c30.230469-14.488282 63.351563-25.769532 97.589844-34.082032zm0 0" fill="#ac92ec"/><path d="m276.816406 116.488281c-17.65625 0-32-14.34375-32-32 0-17.640625 14.34375-32 32-32 17.640625 0 32 14.359375 32 32 0 17.65625-14.359375 32-32 32zm0-56c-13.230468 0-24 10.769531-24 24s10.769532 24 24 24c13.230469 0 24-10.769531 24-24s-10.769531-24-24-24zm0 0" fill="#967adc"/><path d="m245.207031 180.488281c-2.199219 0-4.03125-1.800781-4.03125-4 0-2.214843 1.753907-4 3.953125-4h.078125c2.199219 0 4 1.785157 4 4 0 2.199219-1.800781 4-4 4zm0 0" fill="#5d9cec"/><path d="m261.207031 180.488281c-2.199219 0-4.03125-1.800781-4.03125-4 0-2.214843 1.753907-4 3.953125-4h.078125c2.199219 0 4 1.785157 4 4 0 2.199219-1.800781 4-4 4zm0 0" fill="#5d9cec"/><path d="m277.207031 180.488281c-2.199219 0-4.03125-1.800781-4.03125-4 0-2.214843 1.753907-4 3.953125-4h.078125c2.199219 0 4 1.785157 4 4 0 2.199219-1.800781 4-4 4zm0 0" fill="#5d9cec"/><path d="m293.207031 180.488281c-2.199219 0-4.03125-1.800781-4.03125-4 0-2.214843 1.753907-4 3.953125-4h.078125c2.199219 0 4 1.785157 4 4 0 2.199219-1.800781 4-4 4zm0 0" fill="#5d9cec"/><path d="m309.207031 180.488281c-2.199219 0-4.03125-1.800781-4.03125-4 0-2.214843 1.753907-4 3.953125-4h.078125c2.199219 0 4 1.785157 4 4 0 2.199219-1.800781 4-4 4zm0 0" fill="#5d9cec"/><path d="m132.976562 88.425781h-88c-2.214843 0-4-1.800781-4-4 0-2.21875 1.785157-4 4-4h88c2.199219 0 4 1.78125 4 4 0 2.207031-1.800781 4-4 4zm0 0" fill="#656d78"/><g fill="#967adc"><path d="m484.976562 88.425781h-16c-2.214843 0-4-1.800781-4-4 0-2.21875 1.785157-4 4-4h16c2.199219 0 4 1.78125 4 4 0 2.207031-1.800781 4-4 4zm0 0"/><path d="m484.976562 72.488281c-.609374 0-1.214843-.128906-1.800781-.425781l-16-8c-1.96875-.984375-2.769531-3.390625-1.785156-5.359375s3.394531-2.78125 5.363281-1.800781l16 8c1.980469 1 2.78125 3.394531 1.796875 5.378906-.703125 1.390625-2.125 2.207031-3.574219 2.207031zm0 0"/><path d="m468.976562 112.488281c-1.472656 0-2.871093-.816406-3.578124-2.199219-.984376-1.984374-.183594-4.378906 1.785156-5.378906l16-8c1.984375-.980468 4.375-.183594 5.375 1.800782.984375 1.96875.183594 4.378906-1.796875 5.359374l-16 8c-.585938.289063-1.195313.417969-1.785157.417969zm0 0"/><path d="m284.65625 96.273438c-1.03125 0-2.046875-.394532-2.832031-1.167969l-15.6875-15.691407c-1.5625-1.558593-1.5625-4.09375 0-5.652343 1.558593-1.5625 4.09375-1.5625 5.65625 0l15.6875 15.6875c1.558593 1.558593 1.558593 4.09375 0 5.65625-.777344.773437-1.808594 1.167969-2.824219 1.167969zm0 0"/><path d="m268.976562 80.585938c-1.03125 0-2.046874-.394532-2.832031-1.171876-1.558593-1.558593-1.558593-4.09375 0-5.652343l32-32c1.558594-1.5625 4.09375-1.5625 5.65625 0 1.558594 1.558593 1.558594 4.09375 0 5.652343l-32 32c-.785156.777344-1.808593 1.171876-2.824219 1.171876zm0 0"/><path d="m252.65625 128.273438c-1.03125 0-2.046875-.394532-2.832031-1.167969-1.558594-1.5625-1.558594-4.097657 0-5.65625l32-32c1.558593-1.5625 4.097656-1.5625 5.65625 0 1.558593 1.558593 1.558593 4.09375 0 5.65625l-32 32c-.777344.773437-1.808594 1.167969-2.824219 1.167969zm0 0"/></g><path d="m8 84.425781c0 2.207031-1.789062 4-4 4s-4-1.792969-4-4c0-2.210937 1.789062-4 4-4s4 1.789063 4 4zm0 0" fill="#ac92ec"/></svg>